<svg xmlns:xlink="http://www.w3.org/1999/xlink" xmlns="http://www.w3.org/2000/svg" width="214" height="80" fill="none"><g clip-path="url(#clip0_402_79)" fill="#fff"><path d="M142.653 27l-18.057 25.768h5.544L148.29 27h-5.637zm-11.936 0l5.313 7.593-2.772 4.141-8.2-11.734h5.659zm12.474 25.77l-5.891-8.398 2.772-4.027 8.662 12.425h-5.543z"/><path fill-rule="evenodd" clip-rule="evenodd" d="M118.128 27h4.851v25.768h-4.851v-.963a9.853 9.853 0 01-4.72 1.195c-5.43 0-9.832-4.365-9.832-9.75s4.402-9.75 9.832-9.75c1.711 0 3.319.433 4.72 1.195V27zm-4.771 21.72c3.075 0 5.569-2.472 5.569-5.521 0-3.05-2.494-5.523-5.569-5.523-3.076 0-5.569 2.473-5.569 5.523s2.493 5.522 5.569 5.522z"/><path d="M104.058 27L86.02 52.768h5.655L109.696 27h-5.638zM91.68 27l5.659 7.823-3.118 4.372L85.788 27h5.89z"/><path fill-rule="evenodd" clip-rule="evenodd" d="M79.552 27h4.851v25.768h-4.85v-.963A9.854 9.854 0 0174.832 53C69.403 53 65 48.635 65 43.25s4.402-9.75 9.833-9.75c1.71 0 3.319.433 4.72 1.195V27zm-4.771 21.72c3.076 0 5.569-2.472 5.569-5.521 0-3.05-2.493-5.523-5.57-5.523-3.075 0-5.568 2.473-5.568 5.523s2.493 5.522 5.569 5.522z"/></g><defs><clipPath id="clip0_402_79"><path fill="#fff" transform="translate(65 27)" d="M0 0h83.85v26H0z"/></clipPath></defs></svg>