<svg xmlns:xlink="http://www.w3.org/1999/xlink" xmlns="http://www.w3.org/2000/svg" width="213" height="80" fill="none"><g clip-path="url(#clip0)" fill-rule="evenodd" clip-rule="evenodd" fill="#fff"><path d="M117.934 31.417h2.398c.753 0 1.297-.132 1.64-.4.341-.264.515-.69.515-1.276 0-.573-.174-.992-.515-1.26-.343-.267-.887-.4-1.64-.4h-2.398v3.336zm2.111 2.439h-2.111v4.814h-3.465V25.485h6.46c1.638 0 2.899.36 3.782 1.079.88.719 1.322 1.757 1.322 3.116 0 .96-.225 1.757-.678 2.397-.45.639-1.105 1.112-1.968 1.418l3.443 5.175h-3.895l-2.89-4.814zm19.145 2.156v2.658h-10.713V25.485h10.448v2.655h-6.952v2.678h5.529v2.497h-5.529v2.697h7.217zm13.597-4.49v7.354h-2.388l-.1-1.607c-.757 1.209-2.012 1.813-3.763 1.813-1.194 0-2.252-.27-3.174-.812-.924-.542-1.642-1.34-2.16-2.39-.519-1.05-.776-2.31-.776-3.782 0-1.456.264-2.71.794-3.758.532-1.052 1.29-1.859 2.27-2.42.982-.565 2.142-.847 3.483-.847 1.5 0 2.707.275 3.625.824.915.549 1.638 1.435 2.167 2.658l-3.165 1.297c-.158-.672-.456-1.174-.896-1.503-.434-.33-.98-.495-1.631-.495-1.008 0-1.781.358-2.32 1.073-.536.714-.805 1.764-.805 3.15 0 2.858 1.076 4.287 3.224 4.287.81 0 1.465-.193 1.963-.578.496-.385.744-.94.744-1.668v-.206h-3.263v-2.39h6.171zm13.18 4.49v2.658h-10.713V25.485h10.45v2.655h-6.954v2.678h5.529v2.497h-5.529v2.697h7.217zm14.42 2.658h-3.837l-4.116-7.131-1.004-2h-.02l.081 2.48v6.651h-3.053V25.485h3.837l4.116 7.131 1.004 1.998h.021l-.08-2.476v-6.653h3.051V38.67zm-58.501 16.07h-1.417l-3.955-6.07-1.003-1.786h-.011l.055 1.456v6.4h-1.086v-9.065h1.417l3.937 6.044 1.018 1.813h.016l-.058-1.456v-6.4h1.087v9.065zm9.06-1.028v1.029h-7.005v-9.066h6.784v1.032h-5.611v2.924h4.369v1.032h-4.369v3.049h5.832zm8.244-7.007h-3.157v8.036h-1.1v-8.036h-3.16v-1.03h7.417v1.03zm4.916 8.035h-1.38l-2.71-9.065h1.195l2.214 8.2 2.167-8.2h1.267l2.169 8.229 2.222-8.229h1.127l-2.699 9.066h-1.374l-1.628-5.88-.474-2.044h-.011l-.473 2.045-1.612 5.879zm11.217-7.36c-.588.684-.882 1.626-.882 2.828 0 1.203.294 2.145.882 2.828.588.684 1.392 1.027 2.409 1.027 1.018 0 1.818-.343 2.406-1.027.588-.683.882-1.625.882-2.828 0-1.202-.294-2.144-.882-2.828-.588-.685-1.388-1.025-2.406-1.025-1.017 0-1.821.34-2.409 1.025zm4.806-1.513a4.04 4.04 0 011.582 1.716c.369.74.553 1.616.553 2.625s-.184 1.884-.553 2.627a4.046 4.046 0 01-1.582 1.715c-.679.4-1.479.602-2.397.602-.919 0-1.718-.201-2.4-.602-.681-.402-1.205-.975-1.577-1.715-.371-.743-.556-1.618-.556-2.627 0-1.01.185-1.884.556-2.625a4.042 4.042 0 011.577-1.716c.682-.402 1.481-.604 2.4-.604.918 0 1.718.202 2.397.604zm4.936 4.079h2.442c1.35 0 2.024-.539 2.024-1.62 0-1.08-.674-1.621-2.024-1.621h-2.442v3.241zm2.282 1.031h-2.282v3.764h-1.159v-9.066h3.616c.972 0 1.753.237 2.34.713.589.477.883 1.124.883 1.937 0 .643-.189 1.181-.563 1.621-.378.44-.894.742-1.547.907l2.688 3.888h-1.374l-2.602-3.764zm8.811-.928l-1.644 1.726v3.05h-1.112V45.33h1.112v4.89l4.627-4.89h1.459l-3.662 3.87 3.704 5.624h-1.335l-3.149-4.776zM56.428 7.221l3.239 1.03.004 3.353-3.234 1.04-2.007-2.71 1.998-2.713z"/><path d="M59.664 8.251l3.872 20.422-3.867-17.07-.005-3.352z"/><path d="M54.43 9.935l2.007 2.708 7.101 16.03L54.43 9.935zm2.011 2.709l3.234-1.04 3.867 17.07-7.1-16.03zm20.883 20.419l15.264-14.29-1.998 2.713-13.266 11.577zm15.269-14.29l3.238 1.03.004 3.352-3.236 1.042-2.005-2.709 1.999-2.715zm-26.949 1.343l1.647-1.285 1.749 1.148-.564 1.99-2.102.086-.73-1.94z"/><path d="M69.036 19.977l-1.747 8.048-1.648-7.91.73 1.939 2.101-.084.564-1.992zm8.288 13.086L90.59 21.486l2.005 2.71-15.27 8.867zM75.78 21.745l2.09-.23.862 1.884-1.55 1.393-1.823-1.022.42-2.025z"/><path d="M75.779 21.745l-.42 2.026 1.823 1.021 1.55-1.393-5.423 6.154 2.47-7.808zm16.816 2.452l3.236-1.04-18.507 9.907 15.27-8.867zm-40.629.91l2.075-.328.957 1.84-1.484 1.466-1.873-.935.325-2.043z"/><path d="M54.039 24.778l4.536 6.818-6.934-4.447 1.873.935 1.482-1.464-.957-1.842zM34.098 37.553l20.878 2.638-17.64-1.608-3.238-1.03zm-.009 0l3.238 1.03.004 3.353-3.236 1.04-2.005-2.71 1.998-2.713z"/><path d="M37.332 38.583L54.97 40.19l-17.633 1.745-.005-3.352zm42.316 1.571l8.096-1.601-1.994.641.002 2.07 1.999.634-8.103-1.744z"/><path d="M85.75 39.195l1.996-.641 1.236 1.67-1.229 1.676-2-.635-.003-2.07zm-48.412 2.74l17.635-1.745-20.871 2.785 3.236-1.04zm9.928 2.763l8.264-.836-7.209 4.018 1.698-1.218-.654-1.966-2.1.002z"/><path d="M47.266 44.698l2.1-.002.653 1.966-1.698 1.218-1.7-1.214.645-1.968zm2.363 5.742l7.694-3.304-5.783 6.072 1.287-1.634-1.181-1.71-2.017.575zm27.723-3.104l18.538 9.86-3.24-1.032-15.298-8.828zm0 0l15.297 8.828-1.996 2.715-13.301-11.543z"/><path d="M77.352 47.336l13.3 11.544 2.004 2.71-15.304-14.254zM49.636 50.44l2.016-.575 1.181 1.71-1.286 1.633-1.977-.7.066-2.068zm4.239 4.892l6.156-5.396-3.49 7.472.73-1.94-1.649-1.284-1.747 1.148zm9.7-3.565L59.797 72.2l-.004-3.353 3.782-17.08zm-.005 0l-3.78 17.08-3.24-1.03 7.02-16.05z"/><path d="M63.57 51.767l-7.02 16.05-2 2.713 9.02-18.763zm7.715-.012l4.172 6.965-1.232-1.671-2.001.643.004 2.068-.943-8.005zm-3.958.566l1.754 7.974-.653-1.966-2.098.005-.646 1.966 1.643-7.979zm-13.452 3.011l1.747-1.148 1.648 1.285-.73 1.94-2.1-.085-.565-1.992zm38.768.832l3.239 1.033.004 3.35-3.236 1.044-2.006-2.712 2-2.715z"/><path d="M72.223 57.691l2-.643 1.233 1.671-1.228 1.677-2-.637-.005-2.068zm-5.893.643l2.1-.002.654 1.963-1.698 1.22-1.702-1.213.646-1.968zm-9.78 9.483l3.238 1.03.004 3.353-3.234 1.042-2.007-2.711 1.998-2.714z"/></g><defs><clipPath id="clip0"><path fill="#fff" transform="translate(32.05 6.943)" d="M0 0h148.75v66.34H0z"/></clipPath></defs></svg>