<svg xmlns:xlink="http://www.w3.org/1999/xlink" xmlns="http://www.w3.org/2000/svg" width="214" height="80" fill="none"><path d="M189.485 45.26l-6.27-10.876a1.103 1.103 0 00-.939-.529 1.096 1.096 0 00-.939.53l-6.271 10.875a1.1 1.1 0 00.506 1.503c.133.063.277.099.424.105.429.01.756-.206 1.023-.667l.969-1.686a.71.71 0 01.616-.357h7.321a.71.71 0 01.616.357l.969 1.686c.244.437.567.654.972.667a1.087 1.087 0 00.796-.302 1.088 1.088 0 00.207-1.306zm-5.229-3.27h-3.968a.484.484 0 01-.484-.485.49.49 0 01.064-.242l1.994-3.441a.487.487 0 01.841 0l1.98 3.441a.487.487 0 01-.182.665.488.488 0 01-.245.063zm-117.7-6.347A21.016 21.016 0 0031.14 25.155a21.242 21.242 0 00-2.572 3.114c-.224.3-.425.615-.601.945a21.02 21.02 0 0032.322 26.2 21.018 21.018 0 004.951-6.925c.126-.26.237-.526.333-.799a21.217 21.217 0 00.994-11.983l-.012-.064zm-7.29-9.61a19.22 19.22 0 014.603 6.743.324.324 0 01-.358.442 9.63 9.63 0 00-1.865-.132.972.972 0 01-.977-.797 28.28 28.28 0 00-1.614-5.738l-.12-.285a.206.206 0 01.331-.232zm1.998 12.33a.225.225 0 01.406-.137 18.165 18.165 0 01.994 1.552.482.482 0 01-.062.567c-.226.252-.47.507-.733.767l-.29.29a.19.19 0 01-.301-.032.19.19 0 01-.025-.113c.013-.315.02-.633.026-.944.006-.66.002-1.308-.015-1.95zM34.807 24.315a19.123 19.123 0 0111.188-3.576c1.063 0 2.124.086 3.173.26a.323.323 0 01.149.566c-1.005.79-1.94 1.958-2.769 3.472a.903.903 0 01-1.035.436 26.164 26.164 0 00-7.933-1.045c-.876.029-1.748.12-2.61.276a.218.218 0 01-.16-.39h-.003zm-2.751 28.788c-.404-.765.12-2.536 2.78-5.227a.663.663 0 00-.059-.986l-.317-.253a.663.663 0 00-.888.047l-.104.104c-1.323 1.364-2.268 2.628-2.782 3.764a.454.454 0 01-.79.062 19.141 19.141 0 01-3.173-10.603c0-1.351.14-2.7.42-4.021a.19.19 0 11.378-.017c.454 1.44 1.11 2.81 1.948 4.066a25.545 25.545 0 004.7 5.292 28.626 28.626 0 002.039 1.623 35.986 35.986 0 004.675 2.9c.739.379 1.459.757 2.196 1.082a1.67 1.67 0 001.296.035c.348-.136.698-.277 1.05-.425a.838.838 0 00.489-.978 37.412 37.412 0 01-.973-8.186v-1.367c0-.493.026-.985.052-1.47.19-3.476.77-6.741 1.701-9.487a.487.487 0 00-.302-.618c-.25-.083-.497-.164-.743-.242a.484.484 0 00-.603.304c-1.015 2.982-1.642 6.522-1.81 10.267a1.408 1.408 0 01-.688 1.15 52.986 52.986 0 00-6.015 4.113.975.975 0 01-1.245-.026 23.732 23.732 0 01-4.37-4.913c-2.205-3.387-2.73-6.577-1.476-8.98l.01-.018c.16-.266.327-.527.499-.786 1.442-1.906 4.123-3.012 7.68-3.137.224-.007.45-.011.68-.011a25.1 25.1 0 016.905 1.047l.157.047.121.034c.55.165 1.102.347 1.654.544l.04.014.43.16.136.051.13.05c1.186.458 2.346.982 3.474 1.568a33.321 33.321 0 016.023 3.991c-3.377.773-7.3 2.268-11.248 4.279a.567.567 0 00-.312.48c-.015.243-.032.735-.045 1.133a.32.32 0 00.468.293c3.906-2.052 7.807-3.59 11.15-4.395a1.253 1.253 0 00.945-1.391 36.482 36.482 0 00-.208-1.323 2.19 2.19 0 00-.83-1.357 35.532 35.532 0 00-5.148-3.252 36.559 36.559 0 00-3.779-1.7.476.476 0 01-.246-.677c1.306-2.338 2.86-3.646 4.373-3.646h.047c1.786.032 3.566 1.89 4.884 5.103a26.716 26.716 0 011.553 5.529c.151.87.272 1.767.363 2.687l-.025.015.032.032a42.02 42.02 0 01.19 4.799 43.863 43.863 0 01-.163 3.067 54.491 54.491 0 01-8.59 5.57 62.203 62.203 0 01-3.187 1.577l-.05.022-.243.11a52.58 52.58 0 01-2.593 1.096l-.143.055-.19.07-.426.162-.118.044-.515.189-.063.024a35.293 35.293 0 01-5.153 1.448c-3.838.735-5.633.168-6.055-.607zm5.282-7.481a50.135 50.135 0 015.871-4.069c.033 2.654.332 5.299.894 7.893a39.797 39.797 0 01-2.417-1.133 34.107 34.107 0 01-4.348-2.691zm11.15 13.504a19.38 19.38 0 01-2.487.159 19.13 19.13 0 01-10.405-3.043.26.26 0 01.128-.476h.146c.86-.062 1.716-.177 2.562-.346a39.2 39.2 0 006.472-1.91.408.408 0 01.52.228c.892 2.17 1.988 3.808 3.213 4.851a.309.309 0 01-.153.537h.003zm8.148-5.146c-1.378 2.706-3.07 4.225-4.713 4.195-1.786-.032-3.566-1.89-4.885-5.102a.406.406 0 01.215-.525l.042-.017a.403.403 0 01.274-.02c2.335.676 4.75 1.03 7.181 1.053.248 0 .493 0 .735-.013.285-.01.567-.024.843-.047a.329.329 0 01.304.476h.004zm.597-2.328c-.6.087-1.205.14-1.812.16a22.7 22.7 0 01-4.855-.387.218.218 0 01-.152-.315.218.218 0 01.095-.093c.365-.19.732-.378 1.096-.567a59.715 59.715 0 007.059-4.371.217.217 0 01.342.212 31.251 31.251 0 01-1.206 4.883.71.71 0 01-.567.478zm2.835 1.529a16.83 16.83 0 01-1.251 1.215.214.214 0 01-.337-.25l.084-.189c.115-.252.227-.512.334-.782a.22.22 0 01.145-.127c.275-.068.541-.145.8-.228a.214.214 0 01.225.36zm3.874-6.114c-.093.236-.19.469-.293.701-.015.033-.03.065-.047.097-.635 1.223-1.701 2.186-3.126 2.857a.412.412 0 01-.567-.484 36.557 36.557 0 001.062-5.455c.044-.36.22-.689.495-.925a34.397 34.397 0 001.637-1.511.464.464 0 01.77.189c.498 1.648.526 3.188.07 4.531h-.001zm.378-9.029a.394.394 0 01-.673.02l-.074-.114a22.74 22.74 0 00-1.974-2.593.321.321 0 01.241-.531c1.728 0 2.633.427 2.909.945.245.438.175 1.2-.42 2.27l-.01.003zm.931 2.547a.121.121 0 01-.232.044 5.297 5.297 0 00-.066-.155.29.29 0 01.032-.29l.07-.092c.085-.11.206-.092.206.029.01.16.005.3 0 .465h-.01zm61.16-4.558h7.245a1.086 1.086 0 001.076-1.217 1.107 1.107 0 00-1.104-.944h-8.997a1.087 1.087 0 00-1.083 1.082v10.834a1.09 1.09 0 001.083 1.083h9.035a1.083 1.083 0 001.033-.762c.046-.147.06-.3.042-.453a1.1 1.1 0 00-1.103-.945h-7.217a.706.706 0 01-.705-.705v-1.84a.705.705 0 01.705-.705h5.438a1.09 1.09 0 001.034-.763 1.1 1.1 0 00.042-.452 1.107 1.107 0 00-1.104-.945h-5.41a.706.706 0 01-.705-.705v-1.843a.694.694 0 01.201-.507.707.707 0 01.504-.21h-.01zm22.146 4.21c-.994-.632-2.332-.957-4.012-.957-2.222 0-3.343-.543-3.343-1.627 0-1.085 1.121-1.626 3.343-1.626a9.334 9.334 0 013.532.684c.652.199 1.104-.035 1.355-.669.217-.566-.072-1.101-.667-1.371a10.412 10.412 0 00-4.21-.813c-1.644 0-2.963.342-3.993 1.011a3.17 3.17 0 00-1.512 2.782c0 1.247.506 2.205 1.5 2.834.994.63 2.33.958 4.01.958 2.223 0 3.343.543 3.343 1.627 0 1.085-1.12 1.626-3.343 1.626h-.542a10.06 10.06 0 01-3.506-.686 1.051 1.051 0 00-1.16.286 1.05 1.05 0 00-.211.364 1.104 1.104 0 00.668 1.41c1.336.544 2.767.814 4.209.793h.542c1.644 0 2.963-.342 3.969-1.01a3.155 3.155 0 001.536-2.782c0-1.244-.506-2.202-1.498-2.833h-.01zm21.691-6.377a1.085 1.085 0 00-1.085 1.083v10.84a1.086 1.086 0 001.835.737c.201-.194.321-.458.332-.738v-10.84a1.085 1.085 0 00-1.073-1.082h-.009zm-5.73 0h-10.802a1.08 1.08 0 00-.811.366 1.098 1.098 0 00-.264.849 1.101 1.101 0 001.103.945h3.602a.705.705 0 01.707.707v9.055a1.098 1.098 0 00.367.81 1.074 1.074 0 00.848.266 1.1 1.1 0 00.945-1.106v-9.018a.712.712 0 01.707-.707h3.628a1.088 1.088 0 001.077-1.217 1.102 1.102 0 00-1.098-.95h-.009zM118.913 44.7h-7.214a.709.709 0 01-.708-.707v-9.022a1.106 1.106 0 00-.945-1.104 1.085 1.085 0 00-1.217 1.076v10.84a1.088 1.088 0 001.085 1.082h9.033a1.08 1.08 0 00.81-.366 1.087 1.087 0 00.265-.849 1.104 1.104 0 00-1.109-.95zm-35.325-8.673a4.1 4.1 0 013.052 1.284 1.1 1.1 0 001.86-.777 1.146 1.146 0 00-.45-.867 6.488 6.488 0 10.126 9.303 1.087 1.087 0 00-1.537-1.535 4.143 4.143 0 01-3.051 1.264 4.317 4.317 0 01-4.337-4.337 4.144 4.144 0 011.264-3.051 4.204 4.204 0 013.073-1.284zm12.472 0h7.243a1.088 1.088 0 001.077-1.217 1.098 1.098 0 00-1.105-.944h-9.014a1.088 1.088 0 00-1.085 1.082v10.834a1.089 1.089 0 001.085 1.083h9.033a1.09 1.09 0 001.035-.762c.046-.146.06-.3.042-.453a1.103 1.103 0 00-1.105-.945H96.05a.705.705 0 01-.704-.707v-1.844a.704.704 0 01.704-.707h5.437a1.086 1.086 0 001.077-1.215 1.103 1.103 0 00-1.105-.945h-5.408a.705.705 0 01-.705-.706v-1.84a.705.705 0 01.704-.714h.01z" fill="#fff"/></svg>