<svg xmlns:xlink="http://www.w3.org/1999/xlink" xmlns="http://www.w3.org/2000/svg" width="214" height="80" fill="none"><g clip-path="url(#clip0_402_107)" fill="#fff"><path d="M92.091 52.443h-4.143V28.578h6.678l8.726 22.134-.629.179V28.578h4.157v23.865h-6.784l-8.683-22.085.678-.16v22.245zm25.825.342a9.765 9.765 0 01-4.792-1.142 8.314 8.314 0 01-3.243-3.162 9.07 9.07 0 01-1.172-4.629 8.957 8.957 0 011.172-4.613 8.312 8.312 0 013.243-3.131 10.703 10.703 0 019.579 0 8.3 8.3 0 013.256 3.131 8.957 8.957 0 011.172 4.613 9.06 9.06 0 01-1.172 4.63 8.302 8.302 0 01-3.256 3.16 9.737 9.737 0 01-4.787 1.143zm0-3.479a4.8 4.8 0 002.572-.68 4.608 4.608 0 001.715-1.9 6.317 6.317 0 00.614-2.874 6.227 6.227 0 00-.614-2.846 4.522 4.522 0 00-1.715-1.878 5.316 5.316 0 00-5.139 0 4.511 4.511 0 00-1.723 1.878 6.213 6.213 0 00-.613 2.846 6.311 6.311 0 00.608 2.874c.383.783.98 1.442 1.723 1.9.776.463 1.668.7 2.572.68zm11.098 3.137V27.156h4.271v25.287h-4.271zm9.677.358a6.98 6.98 0 01-3.715-1.045 7.895 7.895 0 01-2.749-2.854 7.994 7.994 0 01-1.044-4.07v-.228l2.102-.047v.16a4.05 4.05 0 00.633 2.242 4.527 4.527 0 001.641 1.539 4.536 4.536 0 005.332-.722c.874-.852 1.311-2.174 1.311-3.965 0-1.79-.434-3.108-1.303-3.953a4.422 4.422 0 00-3.18-1.254 4.581 4.581 0 00-3.799 2.04 3.921 3.921 0 00-.64 2.231l-2.103-.095a7.76 7.76 0 011.045-4.046 7.635 7.635 0 012.748-2.76 7.268 7.268 0 013.721-1 7.667 7.667 0 016.802 4.018c.739 1.312 1.108 2.916 1.108 4.814 0 1.954-.362 3.599-1.086 4.936a7.48 7.48 0 01-2.879 3.034 7.833 7.833 0 01-3.945 1.025zm14.238-25.645v25.287h-4.19V27.156h4.19zm4.319 18.072v-3.026h12.021l-.485.814v-.42a4.541 4.541 0 00-.5-2.095 3.911 3.911 0 00-1.522-1.585 4.97 4.97 0 00-2.589-.608 5.31 5.31 0 00-2.694.654 4.43 4.43 0 00-1.765 1.9 6.452 6.452 0 00-.62 2.944 7.05 7.05 0 00.597 3.034 4.291 4.291 0 001.755 1.942 5.52 5.52 0 002.824.67 7.942 7.942 0 001.957-.208 4.16 4.16 0 001.357-.575 2.8 2.8 0 00.792-.785 1.98 1.98 0 00.318-.84h4.238a4.891 4.891 0 01-.718 2.11 6.629 6.629 0 01-1.74 1.862 8.892 8.892 0 01-2.714 1.327 12.3 12.3 0 01-3.633.493 9.912 9.912 0 01-4.839-1.134 8.136 8.136 0 01-3.228-3.161 9.85 9.85 0 01.016-9.305 8.19 8.19 0 013.256-3.131 9.948 9.948 0 014.792-1.131 9.735 9.735 0 014.814 1.131 7.836 7.836 0 013.131 3.148 9.616 9.616 0 011.099 4.675c0 .228 0 .47-.016.727a4.49 4.49 0 01-.049.567l-15.855.006zM69.888 22a4.849 4.849 0 00-4.835 4.843v2.547a13.215 13.215 0 00-16.258-6.638A13.21 13.21 0 0040 35.192v16.696a4.844 4.844 0 109.69 0v-2.54a13.207 13.207 0 0016.25 6.632 13.204 13.204 0 008.792-12.436v-16.7A4.85 4.85 0 0069.888 22zm-8.346 33.392a11.79 11.79 0 01-11.323-8.34l-.02-.07a11.71 11.71 0 01-.51-3.438v-8.352a3.507 3.507 0 013.506-3.504 3.51 3.51 0 013.502 3.504v8.348a4.848 4.848 0 001.422 3.425 4.848 4.848 0 008.27-3.425V26.843a3.502 3.502 0 017.003 0V43.54a11.845 11.845 0 01-11.85 11.852zm3.51-11.852a3.507 3.507 0 01-6.792 1.222 3.44 3.44 0 01-.09-.276l-.011-.048-.011-.045a2.152 2.152 0 01-.043-.193c0-.024 0-.049-.013-.074v-.038c0-.06-.018-.119-.023-.18-.006-.062 0-.074 0-.123v-8.593a4.858 4.858 0 00-4.874-4.847 4.853 4.853 0 00-4.846 4.847v16.696a3.504 3.504 0 01-7.008 0V35.192a11.854 11.854 0 0123.196-3.437l.049.159a11.88 11.88 0 01.467 3.278v8.348z"/></g><defs><clipPath id="clip0_402_107"><path fill="#fff" transform="translate(40 22)" d="M0 0h133.171v35H0z"/></clipPath></defs></svg>