<svg xmlns:xlink="http://www.w3.org/1999/xlink" xmlns="http://www.w3.org/2000/svg" width="214" height="80" fill="none"><g clip-path="url(#clip0)" fill="#fff"><path d="M48.805 37.679v3.4h4.818v3.16h-4.818v3.688h6.202v3.28H44.71V34.4h10.296v3.28h-6.202zM68.71 51.107l-3.164-6.345h-1.647v6.345h-4.094V34.298h6.872c1.325 0 2.45.232 3.376.694.942.463 1.644 1.102 2.107 1.916.463.798.694 1.692.694 2.682 0 1.117-.319 2.115-.957 2.993-.623.878-1.549 1.5-2.778 1.867l3.879 6.657h-4.289zm-4.81-9.243h2.537c.75 0 1.31-.183 1.676-.55.383-.367.575-.886.575-1.557 0-.638-.192-1.141-.575-1.508-.367-.367-.925-.55-1.676-.55H63.9v4.165zm19.297 9.512c-1.229 0-2.33-.2-3.304-.6-.974-.398-1.756-.989-2.347-1.77-.574-.783-.877-1.725-.91-2.826h4.359c.063.622.279 1.101.646 1.436.367.32.846.48 1.437.48.606 0 1.085-.136 1.436-.408.352-.287.527-.678.527-1.173 0-.415-.144-.758-.431-1.03a3.195 3.195 0 00-1.03-.67c-.399-.176-.973-.375-1.724-.599-1.085-.335-1.97-.67-2.657-1.005a4.913 4.913 0 01-1.772-1.485c-.495-.654-.742-1.508-.742-2.562 0-1.564.566-2.785 1.7-3.663 1.133-.894 2.61-1.341 4.43-1.341 1.851 0 3.344.447 4.477 1.34 1.133.879 1.74 2.108 1.82 3.688h-4.43c-.032-.543-.231-.966-.599-1.27-.367-.318-.838-.478-1.412-.478-.495 0-.894.136-1.198.407-.303.255-.455.63-.455 1.125 0 .543.256.966.767 1.27.51.303 1.309.63 2.394.981 1.086.367 1.963.718 2.634 1.054a5.007 5.007 0 011.772 1.46c.495.639.742 1.461.742 2.467 0 .957-.247 1.827-.742 2.61-.479.782-1.181 1.404-2.107 1.867-.926.463-2.02.695-3.28.695zM97.86 34.399v16.809h-4.094v-16.81h4.094zm10.962 16.977c-1.229 0-2.33-.2-3.304-.6-.974-.398-1.756-.989-2.346-1.77-.575-.783-.878-1.725-.91-2.826h4.358c.063.622.279 1.101.646 1.436.367.32.846.48 1.437.48.606 0 1.085-.136 1.436-.408.351-.287.527-.678.527-1.173 0-.415-.144-.758-.431-1.03a3.19 3.19 0 00-1.029-.67c-.399-.176-.974-.375-1.724-.599-1.086-.335-1.972-.67-2.658-1.005a4.909 4.909 0 01-1.772-1.485c-.495-.654-.742-1.508-.742-2.562 0-1.564.566-2.785 1.7-3.663 1.133-.894 2.61-1.341 4.429-1.341 1.852 0 3.344.447 4.478 1.34 1.133.879 1.74 2.108 1.82 3.688h-4.43c-.032-.543-.232-.966-.599-1.27-.367-.318-.838-.478-1.412-.478-.495 0-.894.136-1.197.407-.304.255-.455.63-.455 1.125 0 .543.255.966.766 1.27.511.303 1.309.63 2.394.981 1.086.367 1.964.718 2.634 1.054a5.012 5.012 0 011.772 1.46c.495.639.742 1.461.742 2.467a4.78 4.78 0 01-.742 2.61c-.479.782-1.181 1.404-2.107 1.867-.926.463-2.02.695-3.281.695zm22.656-16.977v3.28h-4.453v13.529h-4.095V37.679h-4.453V34.4h13.001zm8.066 3.28v3.4h4.818v3.16h-4.818v3.688h6.201v3.28h-10.296V34.4h10.296v3.28h-6.201zm25.81 13.529h-4.094l-6.849-10.368v10.367h-4.095V34.4h4.095l6.849 10.415V34.4h4.094v16.809zm4.193-8.428c0-1.66.36-3.137 1.077-4.43a7.628 7.628 0 012.994-3.04c1.293-.735 2.753-1.102 4.381-1.102 1.995 0 3.703.526 5.125 1.58 1.42 1.054 2.37 2.49 2.849 4.31h-4.502c-.335-.702-.814-1.237-1.436-1.604-.607-.367-1.302-.55-2.083-.55-1.261 0-2.283.438-3.065 1.316-.782.878-1.174 2.051-1.174 3.52 0 1.468.392 2.642 1.174 3.52.782.878 1.804 1.317 3.065 1.317.781 0 1.476-.184 2.083-.551.622-.367 1.101-.902 1.436-1.605h4.502c-.479 1.82-1.429 3.257-2.849 4.31-1.422 1.038-3.13 1.557-5.125 1.557-1.628 0-3.088-.36-4.381-1.078a7.837 7.837 0 01-2.994-3.04c-.717-1.294-1.077-2.77-1.077-4.43zm24.942-5.1v3.4h4.819v3.16h-4.819v3.687h6.202v3.28h-10.296V34.4h10.296v3.28h-6.202z"/><path fill-rule="evenodd" clip-rule="evenodd" d="M37.575 26.868H15.973c-.803 0-1.454.65-1.454 1.453v21.601c0 .803.651 1.454 1.454 1.454h4.34v-16.96h6.695c1.353 0 2.497.233 3.432.7.934.468 1.635 1.112 2.103 1.934.467.822.7 1.765.7 2.828a5.53 5.53 0 01-.676 2.707c-.451.806-1.144 1.459-2.079 1.958-.934.5-2.095.75-3.48.75h-2.562v6.083h13.13c.802 0 1.453-.651 1.453-1.454V28.321c0-.803-.651-1.453-1.454-1.453zM26.693 42.005c.79 0 1.378-.185 1.765-.556.387-.37.58-.894.58-1.57 0-.677-.193-1.201-.58-1.572-.387-.37-.975-.556-1.765-.556h-2.247v4.254h2.247zm-6.38-11.888h13.016v2.731H20.312v-2.73z"/></g><defs><clipPath id="clip0"><path fill="#fff" transform="translate(13.984 26.66)" d="M0 0h186.436v26.235H0z"/></clipPath></defs></svg>