<svg xmlns:xlink="http://www.w3.org/1999/xlink" xmlns="http://www.w3.org/2000/svg" width="214" height="80" fill="none"><g clip-path="url(#clip0)" fill="#fff"><path fill-rule="evenodd" clip-rule="evenodd" d="M22.209 22.17h36.245v15.18c0 .247.002.514.004.798.024 3.142.064 8.433-2.429 12.546-3.385 5.687-9.6 10.043-15.649 10.567l-.049.005-.048-.005c-6.096-.523-12.312-4.88-15.697-10.57v-.001c-2.446-4.148-2.406-9.392-2.382-12.53.003-.29.005-.56.005-.81V22.17zm1.132 1.132V37.35c0 .253-.002.522-.004.805-.02 3.173-.052 8.1 2.223 11.96 3.224 5.416 9.116 9.508 14.771 10.014 5.61-.506 11.502-4.598 14.726-10.016l.003-.004c2.316-3.82 2.285-8.787 2.265-11.967l-.003-.792V23.3H23.34z"/><path d="M53.431 27.102H27.234v7.886l20.26 15.34-1.53 1.355-18.73-14.046v3.45c0 10.904 10.283 14.97 13.099 14.97 9.426-1.294 12.976-9.302 12.976-13.368l-17.873-13.43h3.244l14.751 11.089V27.103zm8.734-9.008h-.552v-.184h1.333v.184h-.551v1.654h-.23v-1.654zm2.616.827c0-.276-.046-.551-.046-.781-.046.23-.138.46-.23.69l-.321.873H64l-.276-.874a3.824 3.824 0 01-.183-.689c0 .23 0 .552-.046.827l-.046.782h-.23l.138-1.839h.321l.322.873c.092.23.138.414.184.598.046-.184.092-.368.184-.598l.276-.873h.321l.092 1.838h-.23l-.046-.827zm6.25 26.979c1.103.643 2.666 1.24 4.32 1.24 2.482 0 3.907-1.286 3.907-3.17 0-1.747-1.011-2.758-3.54-3.723-3.032-1.103-4.917-2.666-4.917-5.285 0-2.896 2.39-5.056 6.021-5.056 1.93 0 3.309.46 4.136.92l-.643 1.975a7.476 7.476 0 00-3.539-.873c-2.528 0-3.539 1.517-3.539 2.804 0 1.746 1.15 2.62 3.723 3.585 3.171 1.24 4.78 2.757 4.78 5.469 0 2.895-2.114 5.377-6.527 5.377-1.792 0-3.768-.505-4.78-1.195l.598-2.068zm25.506-5.837h-7.261v6.756h8.089v2.022H86.84V30.18h10.065v2.023h-7.63v5.882h7.262v1.977zm5.791 8.777V30.182h2.62l5.975 9.468c1.378 2.206 2.481 4.136 3.355 6.067l.046-.046c-.23-2.482-.276-4.78-.276-7.675V30.18h2.252v18.66h-2.436l-5.929-9.468c-1.287-2.068-2.528-4.228-3.493-6.25l-.092.046c.138 2.344.184 4.596.184 7.721v7.997h-2.206v-.046zM126 32.204h-5.699v-2.069h13.834v2.069h-5.699V48.84H126V32.204zm14.476-2.023v18.66h-2.39V30.18h2.39zm6.067 18.659V30.182h2.62l5.974 9.468c1.379 2.206 2.482 4.136 3.355 6.067l.046-.046c-.229-2.482-.275-4.78-.275-7.675V30.18h2.252v18.66h-2.436l-5.929-9.468c-1.287-2.068-2.528-4.228-3.493-6.25l-.092.046c.138 2.344.184 4.596.184 7.721v7.997h-2.206v-.046zm29.779-8.777h-7.261v6.756h8.089v2.022h-10.525V30.18h10.065v2.023h-7.675v5.882h7.261v1.977h.046zm5.791-9.882h2.39V46.82h7.997v2.022h-10.387V30.18z"/></g><defs><clipPath id="clip0"><path fill="#fff" transform="translate(22.18 17.91)" d="M0 0h170.326v43.34H0z"/></clipPath></defs></svg>