<svg xmlns:xlink="http://www.w3.org/1999/xlink" xmlns="http://www.w3.org/2000/svg" width="214" height="80" fill="none"><path fill-rule="evenodd" clip-rule="evenodd" d="M48.672 32.662h5.845v-5.647h-5.733c-5.696-.155-6.627.78-6.781 7.087V35.7c-.07 5.647 1.085 7.243 5.292 7.126h1.042v4.517H42.12v5.647h6.18c4.467 0 4.765-.078 5.882-1.441.745-1.246.894-2.064 1.005-5.88V44.07c0-5.49-1.117-6.97-5.323-6.892h-1.192v-4.517zm16.94 0h3.015v-5.647H55.932v5.647h3.015v20.327h6.664V32.662zm11.125 20.327h-6.664V32.31c.075-4.595.931-5.296 6.707-5.296h2.718c5.77 0 6.626.662 6.7 5.296v20.68h-6.663v-5.491h-2.792v5.49h-.006zm2.793-11.254V34.88c0-1.674-.447-2.414-1.415-2.414s-1.378.779-1.378 2.414v6.854h2.793zm25.203-9.696c-.186-4.479-1.005-5.14-5.956-5.024H88.613V52.99h6.664V42.825h.857c1.414.039 1.973.701 1.936 2.336v3.466c0 1.83.148 3.232.52 4.361h6.665c-.298-1.09-.522-2.647-.522-4.36v-4.012c.075-2.92-.856-4.166-3.648-4.945 2.792-.234 3.76-1.87 3.648-5.958v-1.674zm-6.626 2.92c0 1.83-.335 2.22-1.899 2.22h-.93v-4.517h.93c1.415 0 1.899.584 1.899 2.297zm24.911 12.266c.075 5.18-.707 5.88-6.589 5.764h-2.755c-6.329.078-6.776-.39-6.701-7.01l-.038-2.024v-7.789c.07-8.45.628-9.19 6.734-9.15h9.344v6.386c-.782-.39-2.643-.662-4.84-.74h-2.345c-2.048 0-2.234.194-2.234 2.375v9.229c-.037 2.726.149 3.037 1.675 3.076h1.08v-6.27c0-1.05-.186-1.946-.521-2.92h7.185v9.073h.005zm2.266 5.764h6.664v-5.491h2.792v5.49h6.664V32.312c-.074-4.634-.931-5.296-6.701-5.296h-2.718c-5.77 0-6.627.701-6.701 5.296V52.99zm9.456-18.108v6.854h-2.792V34.88c0-1.635.409-2.414 1.377-2.414s1.415.74 1.415 2.414zm21.854-7.866l-5.548 20.327h5.957l-.745 5.647H142.93l5.622-20.327h-5.547l.782-5.647h12.807zm8.488 5.647h6.142v-5.647h-6.217c-5.808-.078-6.441.701-6.589 8.334v8.294c-.038 3.816.26 6.62.781 7.515 1.005 1.675 1.378 1.792 5.808 1.83h6.217v-5.646h-6.142v-4.517h6.142v-5.646h-6.142v-4.517z" fill="#fff"/></svg>