<svg xmlns:xlink="http://www.w3.org/1999/xlink" xmlns="http://www.w3.org/2000/svg" width="214" height="80" fill="none"><path d="M84.141 51.058a5.134 5.134 0 01-5.135-5.134v-7.69h6.623v-4.472h-6.623v-7.397l-5.074 2.71v4.687h-9.624c-6.709 0-8.472 8.085-3.312 11.095l5.247 3.526c1.16.86.688 2.667-.946 2.667h-7.139v4.515h7.139c6.752 0 8.472-8.084 3.311-11.095l-5.203-3.526c-1.162-.86-.731-2.71.903-2.71h9.624v7.75c0 5.849 4.043 9.586 10.15 9.586h1.547v-4.512h-1.488zm14.484-12.824a5.134 5.134 0 00-5.135 5.136v12.2h-5.075V43.31c0-5.85 4.043-9.548 10.15-9.548h1.922v4.472h-1.862zM105.794 24a3.179 3.179 0 012.942 1.963c.159.387.241.801.24 1.22a3.185 3.185 0 01-.93 2.252 3.182 3.182 0 01-3.471.69 3.176 3.176 0 01-1.964-2.943 3.167 3.167 0 01.93-2.252 3.176 3.176 0 012.253-.93zm-2.537 9.762h5.074v21.803h-5.074V33.762zm18.985 21.803c-7.052 0-11.783-4.343-11.783-10.923s4.731-10.88 11.783-10.88h3.269v-9.59h5.074v31.393h-8.343zm0-4.515h3.269V38.235h-3.269c-3.999 0-6.708 2.58-6.708 6.407 0 3.828 2.709 6.408 6.708 6.408zm18.858-.081a7.12 7.12 0 003.311.817c3.871 0 6.967-3.14 6.967-7.14h4.644c0 6.366-5.16 11.354-11.783 11.354-6.622 0-11.482-4.946-11.482-11.181 0-6.236 5.204-11.482 11.783-11.482 3.226 0 7.053 1.204 9.547 4.644L141.1 50.97zm-2.924-3.054l9.547-9.547c-1.033-.559-2.151-.817-3.312-.817-3.913 0-7.009 3.14-7.009 7.096 0 1.204.258 2.322.774 3.268z" fill="#fff"/></svg>